<svg xmlns="http://www.w3.org/2000/svg" viewBox="0 0 794 1123">
  <rect width="100%" height="100%" fill="#FFFBF0" />
  <line x1="20" y1="0" x2="20" y2="1123" stroke="#E0E0E0" stroke-width="1" />
  <line x1="40" y1="0" x2="40" y2="1123" stroke="#E0E0E0" stroke-width="1" />
  <line x1="60" y1="0" x2="60" y2="1123" stroke="#E0E0E0" stroke-width="1" />
  <line x1="80" y1="0" x2="80" y2="1123" stroke="#E0E0E0" stroke-width="1" />
  <line x1="100" y1="0" x2="100" y2="1123" stroke="#E0E0E0" stroke-width="1" />
  <line x1="120" y1="0" x2="120" y2="1123" stroke="#E0E0E0" stroke-width="1" />
  <line x1="140" y1="0" x2="140" y2="1123" stroke="#E0E0E0" stroke-width="1" />
  <line x1="160" y1="0" x2="160" y2="1123" stroke="#E0E0E0" stroke-width="1" />
  <line x1="180" y1="0" x2="180" y2="1123" stroke="#E0E0E0" stroke-width="1" />
  <line x1="200" y1="0" x2="200" y2="1123" stroke="#E0E0E0" stroke-width="1" />
  <line x1="220" y1="0" x2="220" y2="1123" stroke="#E0E0E0" stroke-width="1" />
  <line x1="240" y1="0" x2="240" y2="1123" stroke="#E0E0E0" stroke-width="1" />
  <line x1="260" y1="0" x2="260" y2="1123" stroke="#E0E0E0" stroke-width="1" />
  <line x1="280" y1="0" x2="280" y2="1123" stroke="#E0E0E0" stroke-width="1" />
  <line x1="300" y1="0" x2="300" y2="1123" stroke="#E0E0E0" stroke-width="1" />
  <line x1="320" y1="0" x2="320" y2="1123" stroke="#E0E0E0" stroke-width="1" />
  <line x1="340" y1="0" x2="340" y2="1123" stroke="#E0E0E0" stroke-width="1" />
  <line x1="360" y1="0" x2="360" y2="1123" stroke="#E0E0E0" stroke-width="1" />
  <line x1="380" y1="0" x2="380" y2="1123" stroke="#E0E0E0" stroke-width="1" />
  <line x1="400" y1="0" x2="400" y2="1123" stroke="#E0E0E0" stroke-width="1" />
  <line x1="420" y1="0" x2="420" y2="1123" stroke="#E0E0E0" stroke-width="1" />
  <line x1="440" y1="0" x2="440" y2="1123" stroke="#E0E0E0" stroke-width="1" />
  <line x1="460" y1="0" x2="460" y2="1123" stroke="#E0E0E0" stroke-width="1" />
  <line x1="480" y1="0" x2="480" y2="1123" stroke="#E0E0E0" stroke-width="1" />
  <line x1="500" y1="0" x2="500" y2="1123" stroke="#E0E0E0" stroke-width="1" />
  <line x1="520" y1="0" x2="520" y2="1123" stroke="#E0E0E0" stroke-width="1" />
  <line x1="540" y1="0" x2="540" y2="1123" stroke="#E0E0E0" stroke-width="1" />
  <line x1="560" y1="0" x2="560" y2="1123" stroke="#E0E0E0" stroke-width="1" />
  <line x1="580" y1="0" x2="580" y2="1123" stroke="#E0E0E0" stroke-width="1" />
  <line x1="600" y1="0" x2="600" y2="1123" stroke="#E0E0E0" stroke-width="1" />
  <line x1="620" y1="0" x2="620" y2="1123" stroke="#E0E0E0" stroke-width="1" />
  <line x1="640" y1="0" x2="640" y2="1123" stroke="#E0E0E0" stroke-width="1" />
  <line x1="660" y1="0" x2="660" y2="1123" stroke="#E0E0E0" stroke-width="1" />
  <line x1="680" y1="0" x2="680" y2="1123" stroke="#E0E0E0" stroke-width="1" />
  <line x1="700" y1="0" x2="700" y2="1123" stroke="#E0E0E0" stroke-width="1" />
  <line x1="720" y1="0" x2="720" y2="1123" stroke="#E0E0E0" stroke-width="1" />
  <line x1="740" y1="0" x2="740" y2="1123" stroke="#E0E0E0" stroke-width="1" />
  <line x1="760" y1="0" x2="760" y2="1123" stroke="#E0E0E0" stroke-width="1" />
  <line x1="780" y1="0" x2="780" y2="1123" stroke="#E0E0E0" stroke-width="1" />
  <line x1="0" y1="20" x2="794" y2="20" stroke="#E0E0E0" stroke-width="1" />
  <line x1="0" y1="40" x2="794" y2="40" stroke="#E0E0E0" stroke-width="1" />
  <line x1="0" y1="60" x2="794" y2="60" stroke="#E0E0E0" stroke-width="1" />
  <line x1="0" y1="80" x2="794" y2="80" stroke="#E0E0E0" stroke-width="1" />
  <line x1="0" y1="100" x2="794" y2="100" stroke="#E0E0E0" stroke-width="1" />
  <line x1="0" y1="120" x2="794" y2="120" stroke="#E0E0E0" stroke-width="1" />
  <line x1="0" y1="140" x2="794" y2="140" stroke="#E0E0E0" stroke-width="1" />
  <line x1="0" y1="160" x2="794" y2="160" stroke="#E0E0E0" stroke-width="1" />
  <line x1="0" y1="180" x2="794" y2="180" stroke="#E0E0E0" stroke-width="1" />
  <line x1="0" y1="200" x2="794" y2="200" stroke="#E0E0E0" stroke-width="1" />
  <line x1="0" y1="220" x2="794" y2="220" stroke="#E0E0E0" stroke-width="1" />
  <line x1="0" y1="240" x2="794" y2="240" stroke="#E0E0E0" stroke-width="1" />
  <line x1="0" y1="260" x2="794" y2="260" stroke="#E0E0E0" stroke-width="1" />
  <line x1="0" y1="280" x2="794" y2="280" stroke="#E0E0E0" stroke-width="1" />
  <line x1="0" y1="300" x2="794" y2="300" stroke="#E0E0E0" stroke-width="1" />
  <line x1="0" y1="320" x2="794" y2="320" stroke="#E0E0E0" stroke-width="1" />
  <line x1="0" y1="340" x2="794" y2="340" stroke="#E0E0E0" stroke-width="1" />
  <line x1="0" y1="360" x2="794" y2="360" stroke="#E0E0E0" stroke-width="1" />
  <line x1="0" y1="380" x2="794" y2="380" stroke="#E0E0E0" stroke-width="1" />
  <line x1="0" y1="400" x2="794" y2="400" stroke="#E0E0E0" stroke-width="1" />
  <line x1="0" y1="420" x2="794" y2="420" stroke="#E0E0E0" stroke-width="1" />
  <line x1="0" y1="440" x2="794" y2="440" stroke="#E0E0E0" stroke-width="1" />
  <line x1="0" y1="460" x2="794" y2="460" stroke="#E0E0E0" stroke-width="1" />
  <line x1="0" y1="480" x2="794" y2="480" stroke="#E0E0E0" stroke-width="1" />
  <line x1="0" y1="500" x2="794" y2="500" stroke="#E0E0E0" stroke-width="1" />
  <line x1="0" y1="520" x2="794" y2="520" stroke="#E0E0E0" stroke-width="1" />
  <line x1="0" y1="540" x2="794" y2="540" stroke="#E0E0E0" stroke-width="1" />
  <line x1="0" y1="560" x2="794" y2="560" stroke="#E0E0E0" stroke-width="1" />
  <line x1="0" y1="580" x2="794" y2="580" stroke="#E0E0E0" stroke-width="1" />
  <line x1="0" y1="600" x2="794" y2="600" stroke="#E0E0E0" stroke-width="1" />
  <line x1="0" y1="620" x2="794" y2="620" stroke="#E0E0E0" stroke-width="1" />
  <line x1="0" y1="640" x2="794" y2="640" stroke="#E0E0E0" stroke-width="1" />
  <line x1="0" y1="660" x2="794" y2="660" stroke="#E0E0E0" stroke-width="1" />
  <line x1="0" y1="680" x2="794" y2="680" stroke="#E0E0E0" stroke-width="1" />
  <line x1="0" y1="700" x2="794" y2="700" stroke="#E0E0E0" stroke-width="1" />
  <line x1="0" y1="720" x2="794" y2="720" stroke="#E0E0E0" stroke-width="1" />
  <line x1="0" y1="740" x2="794" y2="740" stroke="#E0E0E0" stroke-width="1" />
  <line x1="0" y1="760" x2="794" y2="760" stroke="#E0E0E0" stroke-width="1" />
  <line x1="0" y1="780" x2="794" y2="780" stroke="#E0E0E0" stroke-width="1" />
  <line x1="0" y1="800" x2="794" y2="800" stroke="#E0E0E0" stroke-width="1" />
  <line x1="0" y1="820" x2="794" y2="820" stroke="#E0E0E0" stroke-width="1" />
  <line x1="0" y1="840" x2="794" y2="840" stroke="#E0E0E0" stroke-width="1" />
  <line x1="0" y1="860" x2="794" y2="860" stroke="#E0E0E0" stroke-width="1" />
  <line x1="0" y1="880" x2="794" y2="880" stroke="#E0E0E0" stroke-width="1" />
  <line x1="0" y1="900" x2="794" y2="900" stroke="#E0E0E0" stroke-width="1" />
  <line x1="0" y1="920" x2="794" y2="920" stroke="#E0E0E0" stroke-width="1" />
  <line x1="0" y1="940" x2="794" y2="940" stroke="#E0E0E0" stroke-width="1" />
  <line x1="0" y1="960" x2="794" y2="960" stroke="#E0E0E0" stroke-width="1" />
  <line x1="0" y1="980" x2="794" y2="980" stroke="#E0E0E0" stroke-width="1" />
  <line x1="0" y1="1000" x2="794" y2="1000" stroke="#E0E0E0" stroke-width="1" />
  <line x1="0" y1="1020" x2="794" y2="1020" stroke="#E0E0E0" stroke-width="1" />
  <line x1="0" y1="1040" x2="794" y2="1040" stroke="#E0E0E0" stroke-width="1" />
  <line x1="0" y1="1060" x2="794" y2="1060" stroke="#E0E0E0" stroke-width="1" />
  <line x1="0" y1="1080" x2="794" y2="1080" stroke="#E0E0E0" stroke-width="1" />
  <line x1="0" y1="1100" x2="794" y2="1100" stroke="#E0E0E0" stroke-width="1" />
  <line x1="0" y1="1120" x2="794" y2="1120" stroke="#E0E0E0" stroke-width="1" />

</svg>