<svg xmlns="http://www.w3.org/2000/svg" viewBox="0 0 794 1123">
  <rect width="100%" height="100%" fill="#FBF8FF" />
  <line x1="0" y1="50" x2="794" y2="50" stroke="#CFC2E8" stroke-width="1.5" />
  <line x1="0" y1="80" x2="794" y2="80" stroke="#CFC2E8" stroke-width="1.5" />
  <line x1="0" y1="110" x2="794" y2="110" stroke="#CFC2E8" stroke-width="1.5" />
  <line x1="0" y1="140" x2="794" y2="140" stroke="#CFC2E8" stroke-width="1.5" />
  <line x1="0" y1="170" x2="794" y2="170" stroke="#CFC2E8" stroke-width="1.5" />
  <line x1="0" y1="200" x2="794" y2="200" stroke="#CFC2E8" stroke-width="1.5" />
  <line x1="0" y1="230" x2="794" y2="230" stroke="#CFC2E8" stroke-width="1.5" />
  <line x1="0" y1="260" x2="794" y2="260" stroke="#CFC2E8" stroke-width="1.5" />
  <line x1="0" y1="290" x2="794" y2="290" stroke="#CFC2E8" stroke-width="1.5" />
  <line x1="0" y1="320" x2="794" y2="320" stroke="#CFC2E8" stroke-width="1.5" />
  <line x1="0" y1="350" x2="794" y2="350" stroke="#CFC2E8" stroke-width="1.5" />
  <line x1="0" y1="380" x2="794" y2="380" stroke="#CFC2E8" stroke-width="1.5" />
  <line x1="0" y1="410" x2="794" y2="410" stroke="#CFC2E8" stroke-width="1.5" />
  <line x1="0" y1="440" x2="794" y2="440" stroke="#CFC2E8" stroke-width="1.5" />
  <line x1="0" y1="470" x2="794" y2="470" stroke="#CFC2E8" stroke-width="1.5" />
  <line x1="0" y1="500" x2="794" y2="500" stroke="#CFC2E8" stroke-width="1.5" />
  <line x1="0" y1="530" x2="794" y2="530" stroke="#CFC2E8" stroke-width="1.5" />
  <line x1="0" y1="560" x2="794" y2="560" stroke="#CFC2E8" stroke-width="1.5" />
  <line x1="0" y1="590" x2="794" y2="590" stroke="#CFC2E8" stroke-width="1.5" />
  <line x1="0" y1="620" x2="794" y2="620" stroke="#CFC2E8" stroke-width="1.5" />
  <line x1="0" y1="650" x2="794" y2="650" stroke="#CFC2E8" stroke-width="1.5" />
  <line x1="0" y1="680" x2="794" y2="680" stroke="#CFC2E8" stroke-width="1.5" />
  <line x1="0" y1="710" x2="794" y2="710" stroke="#CFC2E8" stroke-width="1.5" />
  <line x1="0" y1="740" x2="794" y2="740" stroke="#CFC2E8" stroke-width="1.5" />
  <line x1="0" y1="770" x2="794" y2="770" stroke="#CFC2E8" stroke-width="1.5" />
  <line x1="0" y1="800" x2="794" y2="800" stroke="#CFC2E8" stroke-width="1.5" />
  <line x1="0" y1="830" x2="794" y2="830" stroke="#CFC2E8" stroke-width="1.5" />
  <line x1="0" y1="860" x2="794" y2="860" stroke="#CFC2E8" stroke-width="1.5" />
  <line x1="0" y1="890" x2="794" y2="890" stroke="#CFC2E8" stroke-width="1.5" />
  <line x1="0" y1="920" x2="794" y2="920" stroke="#CFC2E8" stroke-width="1.5" />
  <line x1="0" y1="950" x2="794" y2="950" stroke="#CFC2E8" stroke-width="1.5" />
  <line x1="0" y1="980" x2="794" y2="980" stroke="#CFC2E8" stroke-width="1.5" />
  <line x1="0" y1="1010" x2="794" y2="1010" stroke="#CFC2E8" stroke-width="1.5" />
  <line x1="0" y1="1040" x2="794" y2="1040" stroke="#CFC2E8" stroke-width="1.5" />
  <line x1="0" y1="1070" x2="794" y2="1070" stroke="#CFC2E8" stroke-width="1.5" />
  <line x1="0" y1="1100" x2="794" y2="1100" stroke="#CFC2E8" stroke-width="1.5" />

  <line x1="80" y1="0" x2="80" y2="1123" stroke="#F4A5A5" stroke-width="1.5" />
</svg>